<?xml version="1.0" encoding="UTF-8"?>
<svg id="Layer_1" xmlns="http://www.w3.org/2000/svg" version="1.1" viewBox="0 0 63.6 80">
  <!-- Generator: Adobe Illustrator 29.8.2, SVG Export Plug-In . SVG Version: 2.1.1 Build 3)  -->
  <defs>
    <style>
      .st0 {
        fill: #1d1d1b;
      }
    </style>
  </defs>
  <path class="st0" d="M49.8,8.2V0h-2.5v8.2H0v63.6h47.3v8.2h2.5v-8.2h13.8V8.2h-13.8ZM47.3,69.3H2.5V10.7h44.8v58.6ZM61.1,69.3h-11.3V10.7h11.3v58.6Z"/>
  <path class="st0" d="M19.9,43.7c-5.2,0-9.5,4.2-9.5,9.5s4.2,9.5,9.5,9.5,9.5-4.2,9.5-9.5-4.2-9.5-9.5-9.5ZM19.9,60.1c-3.8,0-6.9-3.1-6.9-6.9s3.1-6.9,6.9-6.9,6.9,3.1,6.9,6.9-3.1,6.9-6.9,6.9Z"/>
</svg>